# Blender v2.91.0 OBJ File: 'Scene1.blend'
# www.blender.org
mtllib Scene1.mtl
o Cube_Cube.001
v -1.000000 -1.000000 1.000000
v -1.000000 1.000000 1.000000
v -1.000000 -1.000000 -1.000000
v -1.000000 1.000000 -1.000000
v 1.000000 -1.000000 1.000000
v 1.000000 1.000000 1.000000
v 1.000000 -1.000000 -1.000000
v 1.000000 1.000000 -1.000000
vt 0.001976 0.001976
vt 0.001976 0.331357
vt 0.331357 0.331357
vt 0.331357 0.001976
vt 0.001976 0.335310
vt 0.001976 0.664690
vt 0.331357 0.664690
vt 0.331357 0.335310
vt 0.335310 0.001976
vt 0.335310 0.331357
vt 0.664690 0.331357
vt 0.664690 0.001976
vt 0.335310 0.335310
vt 0.335310 0.664690
vt 0.664690 0.664690
vt 0.664690 0.335310
vt 0.331357 0.668643
vt 0.001976 0.668643
vt 0.001976 0.998024
vt 0.331357 0.998024
vt 0.998024 0.001976
vt 0.668643 0.001976
vt 0.668643 0.331357
vt 0.998024 0.331357
vn -1.0000 0.0000 0.0000
vn 0.0000 0.0000 -1.0000
vn 1.0000 0.0000 0.0000
vn 0.0000 0.0000 1.0000
vn 0.0000 -1.0000 0.0000
vn 0.0000 1.0000 0.0000
usemtl None
s off
f 1/1/1 2/2/1 4/3/1 3/4/1
f 3/5/2 4/6/2 8/7/2 7/8/2
f 7/9/3 8/10/3 6/11/3 5/12/3
f 5/13/4 6/14/4 2/15/4 1/16/4
f 3/17/5 7/18/5 5/19/5 1/20/5
f 8/21/6 4/22/6 2/23/6 6/24/6
